<?xml version="1.0" encoding="utf-8"?>
<!-- Generator: Adobe Illustrator 16.0.0, SVG Export Plug-In . SVG Version: 6.00 Build 0)  -->
<!DOCTYPE svg PUBLIC "-//W3C//DTD SVG 1.1//EN" "http://www.w3.org/Graphics/SVG/1.1/DTD/svg11.dtd">
<svg version="1.1" xmlns="http://www.w3.org/2000/svg" xmlns:xlink="http://www.w3.org/1999/xlink" x="0px" y="0px" width="512px"
	 height="512px" viewBox="0 0 512 512" enable-background="new 0 0 512 512" xml:space="preserve">
<g id="Layer_3">
	<polyline fill="none" stroke="#150088" stroke-width="8" stroke-miterlimit="10" points="256,327 387.619,327 438,361.724 438,400 
			"/>
	<polyline fill="none" stroke="#00F0FC" stroke-width="8" stroke-miterlimit="10" points="62.049,400.086 61.843,362.181 
		113.706,327 130.059,327 256,327 	"/>
	<polyline fill="none" stroke="#150088" stroke-width="8" stroke-miterlimit="10" points="256,187 393.041,187 443.103,150.915 
		442.518,113.25 	"/>
	<polyline fill="none" stroke="#00F0FC" stroke-width="8" stroke-miterlimit="10" points="67,113 67,150.138 119.677,187 
		135.998,187 256,187 	"/>
	<polyline fill="none" stroke="#00F0FC" stroke-width="8" stroke-miterlimit="10" points="257,227 135.998,227 119.677,227 67,190 
		37,190 	"/>
	<polyline fill="none" stroke="#150088" stroke-width="8" stroke-miterlimit="10" points="475,191 443.103,191 393.041,227 257,227 
			"/>
	<polyline fill="none" stroke="#00F0FC" stroke-width="8" stroke-miterlimit="10" points="256,287 135.998,287 119.677,287 67,324 
		37,324 	"/>
	<polyline fill="none" stroke="#150088" stroke-width="8" stroke-miterlimit="10" points="475,323 443.103,323 393.041,287 256,287 
			"/>
	<polyline fill="none" stroke="#150088" stroke-width="8" stroke-miterlimit="10" points="309,171 309,124 346,86.341 346,49 	"/>
	<polyline fill="none" stroke="#00F0FC" stroke-width="8" stroke-miterlimit="10" points="202,171 202,124 165,86.341 165,49 	"/>
	<polyline fill="none" stroke="#00F0FC" stroke-width="8" stroke-miterlimit="10" points="224.333,337.502 187,375.003 187,413 	"/>
	<polyline fill="none" stroke="#150088" stroke-width="8" stroke-miterlimit="10" points="286.667,337.502 324,375.003 324,413 	"/>
</g>
<g id="Layer_2">
	<g>
		<path fill="#FFFFFF" d="M256,139.704v232.592c0,0-95.518-74.501-126.083-172.021L256,139.704z"/>
		<path fill="#FFFFFF" d="M256,139.704v232.592c0,0,95.518-74.501,126.083-172.021L256,139.704z"/>
	</g>
	<path fill="#76E1FF" d="M255,150.276v211.447c0,0-86.834-67.729-114.621-156.383L255,150.276z"/>
	<path fill="#150088" d="M255,150.276v211.447c0,0,86.834-67.729,114.621-156.383L255,150.276z"/>
</g>
<g id="Layer_4">
	<circle fill="none" stroke="#150088" stroke-width="7.746" stroke-miterlimit="10" cx="346.334" cy="41.333" r="10"/>
	<circle fill="none" stroke="#150088" stroke-width="7.746" stroke-miterlimit="10" cx="443.334" cy="105.333" r="10"/>
	<circle fill="none" stroke="#150088" stroke-width="7.746" stroke-miterlimit="10" cx="483.334" cy="191.333" r="10"/>
	<circle fill="none" stroke="#150088" stroke-width="7.746" stroke-miterlimit="10" cx="483.334" cy="323.334" r="10"/>
	<circle fill="none" stroke="#150088" stroke-width="7.746" stroke-miterlimit="10" cx="438.334" cy="408.334" r="10"/>
	<circle fill="none" stroke="#150088" stroke-width="7.746" stroke-miterlimit="10" cx="324.334" cy="421.334" r="10"/>
	<circle fill="none" stroke="#00F0FC" stroke-width="7.746" stroke-miterlimit="10" cx="187.334" cy="421.334" r="10"/>
	<circle fill="none" stroke="#00F0FC" stroke-width="7.746" stroke-miterlimit="10" cx="62.334" cy="407.334" r="10"/>
	<circle fill="none" stroke="#00F0FC" stroke-width="7.746" stroke-miterlimit="10" cx="29.334" cy="324.334" r="10"/>
	<circle fill="none" stroke="#00F0FC" stroke-width="7.746" stroke-miterlimit="10" cx="29.334" cy="190.333" r="10"/>
	<circle fill="none" stroke="#00F0FC" stroke-width="7.746" stroke-miterlimit="10" cx="67.334" cy="105.333" r="10"/>
	<circle fill="none" stroke="#00F0FC" stroke-width="7.746" stroke-miterlimit="10" cx="165.334" cy="41.333" r="10"/>
	<g>
		<g>
			<path fill="#E4EAEA" d="M275.17,237.628v-17.125c0-11.122-9.048-20.17-20.17-20.17c-11.122,0-20.169,9.048-20.169,20.17v17.125
				c-9.363,6.438-15.515,17.224-15.515,29.42c0,19.678,16.008,35.686,35.685,35.686c19.677,0,35.685-16.008,35.685-35.686
				C290.685,254.852,284.533,244.067,275.17,237.628z M259.654,266.486v6.77c0,2.57-2.083,4.654-4.654,4.654
				c-2.57,0-4.655-2.084-4.655-4.654v-6.77c-0.962-1.094-1.551-2.523-1.551-4.092c0-3.422,2.784-6.206,6.206-6.206
				s6.206,2.784,6.206,6.206C261.206,263.963,260.617,265.393,259.654,266.486z M265.86,233.056
				c-3.426-1.097-7.075-1.692-10.86-1.692s-7.435,0.595-10.861,1.692v-12.552c0-5.989,4.872-10.861,10.861-10.861
				c5.988,0,10.86,4.872,10.86,10.861V233.056z"/>
		</g>
	</g>
</g>
</svg>
